<svg width="22" height="22" viewBox="0 0 22 22" fill="none" xmlns="http://www.w3.org/2000/svg">
<path d="M8.80002 5.49998V7.69998H13.2V5.49998C13.2 4.28654 12.2135 3.29998 11 3.29998C9.78659 3.29998 8.80002 4.28654 8.80002 5.49998ZM6.60002 7.69998V5.49998C6.60002 3.06966 8.56971 1.09998 11 1.09998C13.4303 1.09998 15.4 3.06966 15.4 5.49998V7.69998C16.6135 7.69998 17.6 8.68654 17.6 9.89997V17.6C17.6 18.8134 16.6135 19.8 15.4 19.8H6.60002C5.38659 19.8 4.40002 18.8134 4.40002 17.6V9.89997C4.40002 8.68654 5.38659 7.69998 6.60002 7.69998Z" fill="black"/>
</svg>
