<svg width="22" height="22" viewBox="0 0 22 22" fill="none" xmlns="http://www.w3.org/2000/svg">
<path d="M3.85001 4.40002C2.93907 4.40002 2.20001 5.13909 2.20001 6.05002C2.20001 6.56909 2.44407 7.05721 2.86001 7.37002L10.01 12.7325C10.5978 13.1725 11.4022 13.1725 11.99 12.7325L19.14 7.37002C19.556 7.05721 19.8 6.56909 19.8 6.05002C19.8 5.13909 19.0609 4.40002 18.15 4.40002H3.85001ZM2.20001 8.93752V15.4C2.20001 16.6135 3.18657 17.6 4.40001 17.6H17.6C18.8134 17.6 19.8 16.6135 19.8 15.4V8.93752L12.98 14.0525C11.8078 14.9325 10.1922 14.9325 9.02001 14.0525L2.20001 8.93752Z" fill="black"/>
</svg>
